HIERARCHY
ROOT Spine
{
    OFFSET 0.0 0.0 -0.0
    CHANNELS 6 Xposition Yposition Zposition Zrotation Xrotation Yrotation
    JOINT ShoulderCenter
    {
        OFFSET 0.0 31.423189163208008 0.0
        CHANNELS 3 Zrotation Xrotation Yrotation
        JOINT LeftShoulder
        {
            OFFSET 16.945829391479492 0.0 0.0
            CHANNELS 3 Zrotation Xrotation Yrotation
            JOINT LeftElbow
            {
                OFFSET 30.426681518554688 0.0 0.0
                CHANNELS 3 Zrotation Xrotation Yrotation
                JOINT LeftHand
                {
                    OFFSET 28.211166381835938 0.0 0.0
                    CHANNELS 3 Zrotation Xrotation Yrotation
                    End Site
                    {
                        OFFSET 11.284467697143555 0.0 0.0
                    }
                }
            }
        }
        JOINT RightShoulder
        {
            OFFSET -16.945829391479492 0.0 0.0
            CHANNELS 3 Zrotation Xrotation Yrotation
            JOINT RightElbow
            {
                OFFSET -30.426681518554688 0.0 0.0
                CHANNELS 3 Zrotation Xrotation Yrotation
                JOINT RightHand
                {
                    OFFSET -28.211166381835938 0.0 0.0
                    CHANNELS 3 Zrotation Xrotation Yrotation
                    End Site
                    {
                        OFFSET -11.284467697143555 0.0 0.0
                    }
                }
            }
        }
        End Site
        {
            OFFSET 0.0 12.569276809692383 0.0
        }
    }
    JOINT LeftHip
    {
        OFFSET 16.084916522201834 -16.084916522201834 0.0
        CHANNELS 3 Zrotation Xrotation Yrotation
        JOINT LeftKnee
        {
            OFFSET 0.0 -35.00017547607422 0.0
            CHANNELS 3 Zrotation Xrotation Yrotation
            JOINT LeftFoot
            {
                OFFSET 0.0 -49.2930908203125 0.0
                CHANNELS 3 Zrotation Xrotation Yrotation
                End Site
                {
                    OFFSET 0.0 0.0 19.717235565185547
                }
            }
        }
    }
    JOINT RightHip
    {
        OFFSET -16.084916522201834 -16.084916522201834 0.0
        CHANNELS 3 Zrotation Xrotation Yrotation
        JOINT RightKnee
        {
            OFFSET 0.0 -35.00017547607422 0.0
            CHANNELS 3 Zrotation Xrotation Yrotation
            JOINT RightFoot
            {
                OFFSET 0.0 -49.2930908203125 0.0
                CHANNELS 3 Zrotation Xrotation Yrotation
                End Site
                {
                    OFFSET 0.0 0.0 19.717235565185547
                }
            }
        }
    }
}
MOTION
Frames: 11
Frame Time: 0.03333333333333333
29.80000114440918 1.3000000715255737 124.30000305175781 0.7206664270426669 1.801018273956961 -78.96978234817631 -1.0489518082000191e-07 2.5260299891037684e-08 2.118077916380716 95.31593918634455 3.7236925324294727 174.1200694611686 -1.3041972897993642e-06 1.0819440190812875e-06 30.733523476074378 3.531125038440127e-31 6.3611093629270335e-15 -6.3611093629270335e-15 -101.34122404267735 29.420907213298392 -169.9692543238461 -1.731041521294538e-06 1.4967322795606617e-07 -23.704509583599023 0.0 -3.1805546814635168e-15 0.0 -2.5183331425218283 -11.426118471698386 2.1474604649349502 7.500423993032001 9.318292684712972 -20.436803489362756 -1.185375226527142e-34 1.9878466759146985e-16 6.833222948456775e-17 4.885129981990137 -9.683346782817038 2.330021995122147 -6.922321088292214 6.123924628412704 10.286697518465559 1.012957011759558e-32 -3.9756933518293955e-16 2.9196498052497124e-15
29.899999618530273 1.3000000715255737 124.39999389648438 0.5405087422113735 1.4410407559611855 -78.68554836870834 -3.390717873886088e-08 1.5484748165061936e-07 1.327809424817173 94.85951741495859 0.09318364738710214 174.27291767248047 2.469473639144318e-06 -1.4060475400722481e-06 31.284758170563503 -6.3611093629270335e-15 0.0 0.0 -102.4815271715255 34.1131020074196 -169.10788373549738 -5.128780095344357e-07 1.864832763853604e-06 -22.475759080542733 6.3611093629270335e-15 3.531125038440127e-31 6.3611093629270335e-15 -2.923601907604686 -11.328093514767875 2.6452182741370187 7.600614096986146 9.12453321817192 -20.20995019704133 -7.510968480812892e-33 1.9878466759146977e-16 4.329778540976701e-15 4.326309614269284 -9.58618309725444 1.839392576116861 -6.748923078309335 6.223597312434381 10.457332346791288 7.951386703658791e-16 2.85783190977271e-32 4.118569831660764e-15
30.100000381469727 1.3000000715255737 124.30000305175781 0.7229396194484939 1.626116720578947 -78.53469423879642 -1.293129449410699e-07 -7.893698505055787e-08 1.0065155274831266 95.10670656320568 -3.569337068926715 174.963916136146 5.281160380367158e-06 -2.9732254240237623e-06 32.025585991477215 -3.1805546814635183e-15 1.2722218725854067e-14 1.2722218725854067e-14 -102.85008163834468 35.48760923056198 -168.47958134372297 -4.796913809858744e-07 7.178391406695191e-06 -22.18027300688589 6.3611093629270335e-15 3.1805546814635168e-15 6.3611093629270335e-15 -2.8588187037118264 -11.727379929985638 2.6737619295225485 7.651285606111377 9.16318675654498 -20.119637968384488 1.987846675914698e-16 1.987846675914698e-16 -1.5592172364205912e-15 4.5746690301025685 -9.997629209045705 1.8366287576594431 -6.760354032771211 6.274417218564189 10.487338614480795 2.8330467913998696e-32 -3.975693351829396e-16 8.165701423405845e-15
30.19999885559082 1.3000000715255737 124.30000305175781 0.7229325885912314 1.626116705865676 -78.31880326116635 -8.564177585748406e-08 -4.3905840274908525e-08 0.4132720617240365 95.3327312220073 -6.418935213568374 175.38331245048087 2.040589167203851e-06 -8.208874588159859e-06 32.29529774713777 -3.1805546814635168e-15 -8.827812596100317e-32 3.1805546814635168e-15 -102.91977392884938 34.173105971297815 -167.80615910418248 -1.945552006279578e-06 -3.639341430306187e-06 -22.401786237209674 0.0 0.0 0.0 -2.97329063781243 -12.03861060967625 3.878484239076377 8.062349334445798 9.121207933650272 -20.364111792370842 -3.9756933518293955e-16 -1.9878466759146975e-16 -6.926403261390274e-15 4.504110494636507 -10.169431389236696 0.967837145775972 -6.698638026558365 6.202047226372848 10.291448563404003 6.842847898588503e-33 -3.975693351829396e-16 1.9723166237591146e-15
30.30000114440918 1.3000000715255737 124.19999694824219 1.0843373532211902 1.806515383004371 -78.35996177164026 1.1867744338614687e-08 -8.746678066909436e-08 0.11624447487467554 96.00363946253478 -8.740770973105567 176.05285665709565 5.129648714432307e-07 -5.959159462326388e-06 32.74336587761752 3.1805546814635176e-15 -1.2722218725854067e-14 6.3611093629270335e-15 -102.47047869344253 30.361617490111602 -167.77056048862215 -6.130428313649572e-06 2.662703715161041e-08 -22.90664596776323 -3.531125038440127e-31 -6.3611093629270335e-15 -6.3611093629270335e-15 -2.6994959783293213 -12.465819834852429 4.402984107557978 7.905747312193964 8.85147578420249 -19.75259166681943 -3.975693351829395e-16 -1.9878466759146975e-16 -2.062390926261499e-15 4.712797850919978 -10.895164990451459 0.24111771681907831 -6.856764013364183 6.568368859065396 10.919638738950342 0.0 0.0 3.932209205793762e-15
30.399999618530273 1.3000000715255737 124.19999694824219 1.4456420587311916 1.9867634281303894 -78.17203958478633 3.931618189613556e-07 -3.2969298172602846e-07 -0.6301643780455868 96.72248755678983 -11.209459821604463 176.48469989403608 -1.3824876951916571e-06 2.6702545940910598e-06 32.753348183095675 0.0 0.0 0.0 -101.8787219589222 27.112630946968597 -167.77822622429633 -3.1406438374701843e-06 3.3817960967704694e-06 -23.986336122201863 6.3611093629270335e-15 3.1805546814635164e-15 -6.3611093629270335e-15 -2.681000967391382 -13.006933808172112 5.2753415902049365 8.209237553817966 8.689443127029337 -19.587516893651518 -1.987846675914698e-16 2.284541345670492e-33 -1.3169484227934873e-15 4.951380686766378 -11.357438944286443 -0.4626607067401956 -7.131912999791724 6.307211073021295 10.522828676512352 0.0 0.0 -6.333155269046985e-15
30.5 1.3000000715255737 124.10000610351562 2.16107762153621 2.1595385721823868 -78.45295162028621 9.114774502204207e-08 -1.853597530405059e-07 -0.6995473050322348 97.7178037347169 -13.002609055596926 177.3472016827032 -3.1635380308318096e-06 1.4650797125873326e-07 32.78956735745141 0.0 0.0 0.0 -101.15315618752436 24.712313098875452 -168.2114139807978 -2.2721277855255116e-06 -3.063928454946808e-06 -24.955665719227536 -6.3611093629270335e-15 -3.531125038440127e-31 6.3611093629270335e-15 -2.604106313013358 -13.753050302191642 6.214932924719124 8.309401630872586 8.17824621671854 -18.394842380614584 -3.291032674376266e-32 -3.975693351829396e-16 -9.48575585663045e-15 4.954191485278362 -12.559051422921975 -1.8818667212494804 -7.1482001724525 6.4368467016820095 10.786034223399414 0.0 0.0 3.164248126700154e-15
30.599998474121094 1.3000000715255737 124.0 2.88944556646435 2.7056968830455648 -78.73556433405665 3.2857597385725274e-08 1.8065286053195524e-07 -0.6387618250340968 98.80505375655194 -14.392928499606906 178.24263456321106 -3.30718137414555e-07 4.667044230988498e-06 32.40474115062274 3.531125038440127e-31 1.2722218725854067e-14 -3.1805546814635168e-15 -100.20430554641733 22.291126270538953 -168.84770178199594 6.412324130568143e-06 -1.6834568785053017e-06 -25.72661161032161 0.0 0.0 -6.361109362927033e-15 -2.1577443665797413 -14.584150644563827 7.2235524655067325 8.407526248653836 7.655737397675396 -17.2463123040584 -9.93923337957349e-17 -9.93923337957349e-17 -3.224038827499151e-15 5.616649681278758 -14.02997532164407 -3.5242562014819474 -7.8723556765377944 6.858539420846656 11.762013325813152 0.0 0.0 -1.2517222037400364e-15
30.700000762939453 1.3000000715255737 123.89999389648438 3.9825216106439414 3.071999366581978 -79.04726414766441 -3.008731225951749e-07 3.331908271107619e-07 -0.6722733883636024 99.99602204897751 -15.337945742742827 179.47254362061685 -3.5518926176365546e-06 2.584449297336195e-06 31.58626095983072 0.0 0.0 3.1805546814635168e-15 -99.34606596360769 19.947399035672653 -170.23391756927484 3.1806888381401635e-06 -1.4605890466132147e-06 -26.21755105515048 6.361109362927032e-15 6.361109362927032e-15 6.361109362927032e-15 -1.847847590761781 -16.09047065535951 9.380099501032172 8.520405696623476 7.504026324810466 -16.985800849442263 4.969616689786744e-16 1.1611289150754506e-32 2.6773809916226083e-15 6.105651208211827 -15.688279625186993 -5.314363578162846 -8.45152222431379 6.804667240115283 11.773962500330333 -7.951386703658792e-16 5.261095992975062e-32 -7.582038385127328e-15
30.700000762939453 1.2000000476837158 123.80000305175781 5.063616117384487 3.427449897578847 -79.61182411919242 7.246922269972645e-08 -2.124309349410328e-07 -0.37114411643007283 100.618681376102 -15.450481364296236 -179.57007330128468 2.7160416507292823e-09 -8.807548293804688e-07 30.89316071446303 0.0 0.0 0.0 -98.61086100304647 18.735211725552986 -171.3160022746038 -1.7039328899712502e-06 4.555453114357985e-06 -26.885957393801256 0.0 0.0 0.0 -1.4634464756761325 -17.62052931714297 12.01895326443196 8.85632287937404 7.409309126577473 -17.1145532961938 -5.963540027744094e-16 4.969616689786744e-16 8.948416052047257e-15 6.5252296498886935 -17.27377973420872 -7.052063073020588 -8.764809268138832 6.688198976359267 11.400470376368482 0.0 0.0 -2.1742073017817009e-16
30.799999237060547 1.2000000476837158 123.69999694824219 6.519799169622937 3.9693625377990327 -79.99941057582879 9.866428706380875e-08 -1.5531704005028236e-07 0.11319859751679111 101.71601414240182 -15.871835671687291 -178.11327462372196 -5.280886255587843e-06 9.17029141232914e-07 30.032002793583946 -1.7655625192200634e-31 6.3611093629270335e-15 3.1805546814635168e-15 -97.89561978258203 16.080962432213244 -172.5076510451065 -4.0071203093491304e-07 3.7725775230063498e-06 -27.817368995640187 6.361109362927033e-15 -3.531125038440127e-31 -6.361109362927033e-15 -1.2759314847569343 -19.992449693453704 15.154414068582591 9.730327502747663 7.648363894329704 -17.85750774604962 2.981770013872047e-16 -3.975693351829396e-16 -5.0317368984090795e-15 7.216197511331792 -19.299061788317875 -8.94456893939397 -9.374085289284798 6.418927073615888 10.921381732056094 1.5902773407317582e-15 6.189813910156277e-32 4.4602309790836025e-15
